<svg width="80" height="80" viewBox="0 0 80 80" fill="none" xmlns="http://www.w3.org/2000/svg">
<rect width="80" height="80" rx="10" fill="#383E45"/>
<g clip-path="url(#clip0_6_142)">
<path d="M57.3027 42.7214C55.6328 42.73 54.1814 43.1322 52.9662 43.7267C52.5201 42.8436 52.0743 42.0569 51.9957 41.4797C51.9081 40.8066 51.8033 40.3956 51.9081 39.5912C52.0131 38.7869 52.4853 37.6414 52.4765 37.5541C52.4678 37.4667 52.3715 37.0557 51.4098 37.0471C50.4481 37.0382 49.6175 37.2306 49.5213 37.4841C49.4251 37.7376 49.2415 38.3147 49.1191 38.9091C48.953 39.7836 47.1957 42.9047 46.1903 44.5397C45.8667 43.9017 45.587 43.342 45.5257 42.8961C45.4383 42.223 45.3333 41.812 45.4383 41.0076C45.5433 40.2032 46.0154 39.058 46.0066 38.9704C45.9978 38.8831 45.9016 38.4721 44.9399 38.4634C43.978 38.4546 43.1474 38.647 43.0514 38.9005C42.9552 39.1542 42.8502 39.7486 42.6492 40.3257C42.448 40.9028 40.1137 46.1138 39.5016 47.4601C39.2543 48.005 38.9949 48.5443 38.7235 49.0776C38.7235 49.0776 38.7147 49.1039 38.6885 49.1476C38.6032 49.3148 38.5158 49.4809 38.4263 49.6459V49.6546C38.2951 49.8908 38.1552 50.1092 38.0853 50.1092C38.0328 50.1092 37.9366 49.4798 38.1027 48.6229C38.4524 46.8132 39.283 43.9979 39.2744 43.9017C39.2744 43.8492 39.4317 43.3596 38.7323 43.1059C38.0502 42.8524 37.8055 43.2721 37.7442 43.2721C37.6831 43.2721 37.6392 43.4207 37.6392 43.4207C37.6392 43.4207 38.4001 40.2557 36.188 40.2557C34.8067 40.2557 32.9005 41.7683 31.9563 43.1322C30.8829 43.7163 29.8104 44.3021 28.7388 44.8896C28.2232 45.1782 27.6897 45.4667 27.1913 45.7377C27.1563 45.7028 27.1214 45.6589 27.0863 45.6241C24.4109 42.7651 19.4624 40.7453 19.6722 36.9072C19.751 35.5082 20.2317 31.8361 29.176 27.3771C36.5377 23.7486 42.3957 24.754 43.4099 26.9836C44.8612 30.1662 40.2711 36.0766 32.6645 36.9332C29.7618 37.2569 28.2404 36.1377 27.8558 35.7181C27.4536 35.2808 27.3923 35.2546 27.2436 35.3421C26.999 35.4734 27.1563 35.8667 27.2436 36.094C27.4711 36.6884 28.4065 37.7376 29.989 38.2536C31.388 38.7081 34.789 38.9618 38.9071 37.3705C43.5147 35.5868 47.117 30.6295 46.0591 26.4766C45.001 22.2623 38.0065 20.8722 31.388 23.224C27.4536 24.6231 23.1869 26.8263 20.1181 29.6941C16.4721 33.1037 15.895 36.0677 16.1311 37.3094C16.9793 41.7158 23.0558 44.5836 25.4864 46.7082C25.364 46.7781 25.2501 46.8394 25.1542 46.8919C23.9388 47.4951 19.3049 49.9169 18.1508 52.4787C16.8395 55.3814 18.3608 57.4624 19.3662 57.742C22.4875 58.6077 25.6962 57.0514 27.4186 54.4808C29.141 51.9104 28.9311 48.5704 28.1356 47.0404C28.1268 47.023 28.1182 47.0054 28.1005 46.9879C28.4153 46.8044 28.7388 46.612 29.0536 46.4284C29.6322 46.0864 30.2181 45.7569 30.811 45.4403C30.5136 46.2535 30.295 47.224 30.1902 48.6229C30.059 50.2667 30.7321 52.3999 31.6152 53.2392C32.0088 53.6067 32.4721 53.6153 32.7695 53.6153C33.8011 53.6153 34.2646 52.7584 34.7804 51.7442C35.4098 50.5028 35.9781 49.0602 35.9781 49.0602C35.9781 49.0602 35.27 52.9596 37.1935 52.9596C37.8929 52.9596 38.6011 52.0502 38.9159 51.5869V51.5956C38.9159 51.5956 38.9333 51.5693 38.9684 51.5082C39.0383 51.3946 39.082 51.3244 39.082 51.3244V51.3072C39.3618 50.8174 39.9914 49.7071 40.9268 47.8622C42.1334 45.4842 43.2963 42.5116 43.2963 42.5116C43.2963 42.5116 43.4013 43.2372 43.7596 44.4437C43.9696 45.1519 44.4065 45.9301 44.7563 46.6819C44.4766 47.0755 44.3017 47.2939 44.3017 47.2939L44.3105 47.3027C44.083 47.5999 43.8383 47.9234 43.5672 48.2384C42.6141 49.3748 41.4777 50.6777 41.3202 51.0535C41.1365 51.4994 41.1803 51.823 41.5302 52.0853C41.7837 52.2777 42.2382 52.3037 42.7017 52.2777C43.5586 52.2164 44.1618 52.0066 44.459 51.8755C44.9225 51.7094 45.4645 51.4557 45.9715 51.0797C46.9072 50.389 47.4753 49.4011 47.423 48.0985C47.3967 47.3815 47.1607 46.6645 46.8721 45.9912C46.9597 45.8689 47.0382 45.7465 47.1258 45.6241C48.6033 43.4644 49.7487 41.095 49.7487 41.095C49.7487 41.095 49.8537 41.8206 50.212 43.0274C50.387 43.6394 50.7455 44.3039 51.0601 44.9507C49.67 46.0787 48.8131 47.3901 48.5071 48.247C47.9564 49.8383 48.3846 50.5551 49.1978 50.7212C49.565 50.8 50.0896 50.6251 50.4743 50.4589C50.9639 50.3016 51.541 50.0307 52.0919 49.6283C53.0275 48.9377 53.9279 47.9759 53.8754 46.6733C53.8491 46.0787 53.6918 45.4928 53.4732 44.9245C54.6535 44.4351 56.1749 44.164 58.1157 44.3912C62.2776 44.8808 63.0995 47.4775 62.942 48.5706C62.7846 49.6634 61.9103 50.2579 61.622 50.4415C61.3332 50.6252 61.2372 50.6864 61.2635 50.8174C61.2983 51.0098 61.4382 51.0012 61.6831 50.9661C62.0242 50.905 63.869 50.083 63.9475 48.0721C64.0788 45.5016 61.6306 42.6951 57.3027 42.7214ZM25.1978 53.5454C23.8163 55.0491 21.893 55.6174 21.0623 55.1367C20.1706 54.6207 20.5203 52.3999 22.2164 50.8088C23.248 49.8383 24.577 48.9376 25.4601 48.3869C25.6611 48.2644 25.9585 48.0897 26.317 47.8711C26.3781 47.836 26.4132 47.8186 26.4132 47.8186L26.623 47.6873C27.2436 49.9606 26.6493 51.9629 25.1978 53.5454ZM35.2525 46.7082C34.7716 47.8799 33.7662 50.8787 33.1542 50.7126C32.6296 50.5727 32.306 48.2995 33.0492 46.0525C33.4251 44.9245 34.2207 43.5781 34.6842 43.0536C35.4361 42.2142 36.2667 41.9342 36.4677 42.2755C36.7214 42.7214 35.5497 45.9737 35.2525 46.7082ZM43.5498 50.6776C43.3486 50.7826 43.1564 50.8525 43.0688 50.8C43.0077 50.7649 43.1564 50.6251 43.1564 50.6251C43.1564 50.6251 44.1968 49.5061 44.6077 48.9989C44.8439 48.7017 45.1235 48.352 45.4208 47.9584V48.0721C45.4208 49.4099 44.1267 50.3104 43.5496 50.6776H43.5498ZM49.9497 49.2175C49.801 49.1125 49.8273 48.7628 50.3257 47.6699C50.518 47.2414 50.9725 46.5246 51.7508 45.8339C51.8382 46.1136 51.8995 46.3847 51.8907 46.6382C51.8819 48.3257 50.6755 48.9552 49.9497 49.2175Z" fill="#CD6799"/>
</g>
<defs>
<clipPath id="clip0_6_142">
<rect width="48" height="36" fill="white" transform="translate(16 22)"/>
</clipPath>
</defs>
</svg>
