<svg width="80" height="80" viewBox="0 0 80 80" fill="none" xmlns="http://www.w3.org/2000/svg">
<rect width="80" height="80" rx="10" fill="#383E45"/>
<g clip-path="url(#clip0_6_173)">
<path d="M39.8901 16.0135C27.6864 16.0135 28.4484 21.3058 28.4484 21.3058L28.462 26.7887H40.1077V28.4348H23.8365C23.8365 28.4348 16.0273 27.5492 16.0273 39.8626C16.0273 52.1764 22.8433 51.7397 22.8433 51.7397H26.9111V46.0256C26.9111 46.0256 26.6918 39.2096 33.6183 39.2096H45.1688C45.1688 39.2096 51.6582 39.3144 51.6582 32.9378V22.3943C51.6582 22.3943 52.6438 16.0135 39.8901 16.0135ZM33.4687 19.7007C33.7439 19.7005 34.0164 19.7545 34.2707 19.8597C34.525 19.9649 34.7561 20.1192 34.9506 20.3138C35.1452 20.5084 35.2995 20.7394 35.4047 20.9937C35.5099 21.248 35.564 21.5206 35.5637 21.7958C35.564 22.071 35.5099 22.3435 35.4047 22.5978C35.2995 22.8521 35.1452 23.0831 34.9506 23.2777C34.7561 23.4723 34.525 23.6266 34.2707 23.7318C34.0164 23.837 33.7439 23.8911 33.4687 23.8908C33.1935 23.8911 32.9209 23.837 32.6666 23.7318C32.4123 23.6266 32.1813 23.4723 31.9867 23.2777C31.7921 23.0831 31.6378 22.8521 31.5326 22.5978C31.4274 22.3435 31.3734 22.071 31.3736 21.7958C31.3734 21.5206 31.4274 21.248 31.5326 20.9937C31.6378 20.7394 31.7921 20.5084 31.9867 20.3138C32.1813 20.1192 32.4123 19.9649 32.6666 19.8597C32.9209 19.7545 33.1935 19.7005 33.4687 19.7007Z" fill="url(#paint0_linear_6_173)"/>
<path d="M40.2366 63.8354C52.4403 63.8354 51.6783 58.5432 51.6783 58.5432L51.6648 53.0605H40.0188V51.4144H56.2901C56.2901 51.4144 64.0992 52.3 64.0992 39.9862C64.0992 27.6726 57.2832 28.1093 57.2832 28.1093H53.2154V33.8232C53.2154 33.8232 53.4347 40.6392 46.5082 40.6392H34.9577C34.9577 40.6392 28.4683 40.5344 28.4683 46.9112V57.4548C28.4683 57.4548 27.4829 63.8354 40.2364 63.8354H40.2366ZM46.6581 60.1487C46.3829 60.1489 46.1103 60.0949 45.856 59.9897C45.6017 59.8845 45.3707 59.7302 45.1761 59.5356C44.9815 59.341 44.8272 59.1099 44.722 58.8557C44.6168 58.6014 44.5628 58.3288 44.563 58.0536C44.5627 57.7784 44.6168 57.5058 44.7219 57.2515C44.8271 56.9972 44.9814 56.7661 45.176 56.5715C45.3706 56.3769 45.6017 56.2226 45.856 56.1174C46.1103 56.0121 46.3829 55.9581 46.6581 55.9584C46.9333 55.9581 47.2058 56.0121 47.4601 56.1173C47.7144 56.2225 47.9455 56.3769 48.1401 56.5714C48.3347 56.766 48.489 56.9971 48.5942 57.2514C48.6994 57.5057 48.7534 57.7782 48.7531 58.0534C48.7534 58.3286 48.6994 58.6012 48.5942 58.8555C48.489 59.1098 48.3347 59.3408 48.1401 59.5354C47.9455 59.73 47.7144 59.8843 47.4601 59.9895C47.2058 60.0947 46.9333 60.1487 46.6581 60.1485V60.1487Z" fill="url(#paint1_linear_6_173)"/>
</g>
<defs>
<linearGradient id="paint0_linear_6_173" x1="20.647" y1="20.3148" x2="44.47" y2="43.9002" gradientUnits="userSpaceOnUse">
<stop stop-color="#387EB8"/>
<stop offset="1" stop-color="#366994"/>
</linearGradient>
<linearGradient id="paint1_linear_6_173" x1="35.2695" y1="35.4599" x2="60.8527" y2="59.6445" gradientUnits="userSpaceOnUse">
<stop stop-color="#FFE052"/>
<stop offset="1" stop-color="#FFC331"/>
</linearGradient>
<clipPath id="clip0_6_173">
<rect width="48.1882" height="48" fill="white" transform="translate(16 16)"/>
</clipPath>
</defs>
</svg>
