<svg width="80" height="80" viewBox="0 0 80 80" fill="none" xmlns="http://www.w3.org/2000/svg">
<rect width="80" height="80" rx="10" fill="#383E45"/>
<path d="M24.853 56.8015L21.484 19H58.516L55.1425 56.7955L39.9775 61L24.853 56.8015Z" fill="#1572B6"/>
<path d="M40 57.787L52.255 54.3895L55.138 22.0915H40V57.787Z" fill="#33A9DC"/>
<path d="M40 35.7865H46.135L46.558 31.039H40V26.4025H51.625L51.514 27.646L50.3755 40.423H40V35.7865V35.7865Z" fill="white"/>
<path d="M40.0285 47.827L40.0075 47.833L34.8445 46.438L34.5145 42.7405H29.86L30.5095 50.02L40.006 52.657L40.0285 52.651V47.827V47.827Z" fill="#EBEBEB"/>
<path d="M45.7405 40.2265L45.1825 46.435L40.012 47.83V52.654L49.516 50.02L49.5865 49.237L50.392 40.2265H45.7405V40.2265Z" fill="white"/>
<path d="M40.0165 26.4025V31.039H28.8175L28.7245 29.9965L28.513 27.646L28.402 26.4025H40.0165V26.4025ZM40 35.7865V40.423H34.9015L34.8085 39.3805L34.5985 37.03L34.4875 35.7865H40V35.7865Z" fill="#EBEBEB"/>
</svg>
