<svg width="80" height="80" viewBox="0 0 80 80" fill="none" xmlns="http://www.w3.org/2000/svg">
<rect width="80" height="80" rx="10" fill="#383E45"/>
<g clip-path="url(#clip0_6_153)">
<path d="M16 39V63H64V15H16V39Z" fill="#007ACC"/>
<path d="M26.6147 39.1594L26.5995 41.1249H32.847V58.8774H37.266V41.1249H43.5137V39.1974C43.5137 38.1306 43.4909 37.2392 43.4605 37.2163C43.4376 37.1859 39.6355 37.1706 35.0262 37.1782L26.6374 37.2011L26.6147 39.1592V39.1594ZM54.7313 37.1452C55.9502 37.4499 56.8799 37.9909 57.7332 38.8747C58.1751 39.3472 58.8302 40.2081 58.8837 40.4137C58.8987 40.4747 56.8112 41.8766 55.5465 42.6615C55.5008 42.6919 55.3178 42.4939 55.1121 42.189C54.495 41.2899 53.8474 40.9014 52.8569 40.8328C51.4019 40.7338 50.4645 41.4956 50.4722 42.768C50.4722 43.1415 50.5255 43.3624 50.6779 43.6671C50.998 44.3301 51.5922 44.7262 53.4589 45.5338C56.895 47.0119 58.3654 47.9871 59.2799 49.3738C60.3008 50.9205 60.5294 53.3891 59.836 55.2253C59.0742 57.2214 57.1847 58.5776 54.5254 59.0271C53.7027 59.1718 51.7523 59.1489 50.8684 58.989C48.9409 58.6462 47.1122 57.6937 45.9846 56.4442C45.5427 55.9567 44.6817 54.6842 44.7351 54.5929C44.758 54.5623 44.956 54.4404 45.1769 54.3109C45.3902 54.189 46.198 53.7242 46.9598 53.2824L48.3389 52.4824L48.6284 52.9091C49.0322 53.526 49.9159 54.3718 50.4494 54.6538C51.9807 55.4614 54.0837 55.3472 55.1198 54.4176C55.5617 54.0139 55.7445 53.5948 55.7445 52.9776C55.7445 52.4214 55.6759 52.1777 55.3864 51.7586C55.0133 51.2252 54.2513 50.7757 52.0874 49.8386C49.6112 48.7717 48.5445 48.1091 47.5694 47.0576C47.0055 46.4482 46.4721 45.4729 46.2512 44.6576C46.0684 43.9794 46.0225 42.2805 46.1674 41.5948C46.678 39.2023 48.4836 37.5337 51.0893 37.0386C51.9349 36.8786 53.9007 36.9396 54.7313 37.1452Z" fill="white"/>
</g>
<defs>
<clipPath id="clip0_6_153">
<rect width="48" height="48" fill="white" transform="translate(16 15)"/>
</clipPath>
</defs>
</svg>
