<svg width="80" height="80" viewBox="0 0 80 80" fill="none" xmlns="http://www.w3.org/2000/svg">
<rect width="80" height="80" rx="10" fill="#383E45"/>
<path d="M53 34.02C51.5001 33.5034 50.1762 32.5746 49.18 31.34C48.0821 29.9644 46.6841 28.8583 45.093 28.106C43.5019 27.3538 41.7598 26.9755 40 27C37.6327 26.8323 35.2892 27.5625 33.436 29.045C31.5829 30.5275 30.3561 32.6536 30 35C30.7013 33.8265 31.7569 32.9057 33.0148 32.3702C34.2727 31.8347 35.668 31.7121 37 32.02C38.4974 32.5516 39.8192 33.4858 40.82 34.72C41.9239 36.0845 43.3246 37.1793 44.9153 37.921C46.5061 38.6626 48.2451 39.0317 50 39C52.3673 39.1676 54.7108 38.4375 56.564 36.955C58.4171 35.4724 59.6439 33.3463 60 31C59.3114 32.1875 58.2592 33.1222 56.9987 33.666C55.7383 34.2098 54.3364 34.3339 53 34.02ZM27 43.98C28.4999 44.4966 29.8238 45.4254 30.82 46.66C31.9179 48.0355 33.3159 49.1417 34.907 49.8939C36.4981 50.6462 38.2402 51.0245 40 51C42.3673 51.1676 44.7108 50.4375 46.564 48.955C48.4171 47.4724 49.6439 45.3463 50 43C49.2987 44.1735 48.2431 45.0942 46.9852 45.6297C45.7273 46.1652 44.332 46.2879 43 45.98C41.5026 45.4484 40.1808 44.5141 39.18 43.28C38.0731 41.9188 36.6719 40.8265 35.0818 40.0851C33.4917 39.3438 31.7542 38.9727 30 39C27.6327 38.8323 25.2892 39.5625 23.436 41.045C21.5829 42.5275 20.3561 44.6537 20 47C20.6886 45.8124 21.7408 44.8778 23.0013 44.334C24.2617 43.7902 25.6636 43.6661 27 43.98Z" fill="#33A9DC"/>
</svg>
