<svg width="80" height="80" viewBox="0 0 80 80" fill="none" xmlns="http://www.w3.org/2000/svg">
<rect width="80" height="80" rx="10" fill="#383E45"/>
<path fill-rule="evenodd" clip-rule="evenodd" d="M40 16C26.74 16 16 26.74 16 40C16 50.62 22.87 59.59 32.41 62.77C33.61 62.98 34.06 62.26 34.06 61.63C34.06 61.06 34.03 59.17 34.03 57.16C28 58.27 26.44 55.69 25.96 54.34C25.69 53.65 24.52 51.52 23.5 50.95C22.66 50.5 21.46 49.39 23.47 49.36C25.36 49.33 26.71 51.1 27.16 51.82C29.32 55.45 32.77 54.43 34.15 53.8C34.36 52.24 34.99 51.19 35.68 50.59C30.34 49.99 24.76 47.92 24.76 38.74C24.76 36.13 25.69 33.97 27.22 32.29C26.98 31.69 26.14 29.23 27.46 25.93C27.46 25.93 29.47 25.3 34.06 28.39C35.98 27.85 38.02 27.58 40.06 27.58C42.1 27.58 44.14 27.85 46.06 28.39C50.65 25.27 52.66 25.93 52.66 25.93C53.98 29.23 53.14 31.69 52.9 32.29C54.43 33.97 55.36 36.1 55.36 38.74C55.36 47.95 49.75 49.99 44.41 50.59C45.28 51.34 46.03 52.78 46.03 55.03C46.03 58.24 46 60.82 46 61.63C46 62.26 46.45 63.01 47.65 62.77C52.4144 61.1614 56.5544 58.0994 59.4873 54.0147C62.4203 49.9301 63.9986 45.0286 64 40C64 26.74 53.26 16 40 16Z" fill="white"/>
</svg>
