<svg width="80" height="80" viewBox="0 0 80 80" fill="none" xmlns="http://www.w3.org/2000/svg">
<rect width="80" height="80" rx="10" fill="#383E45"/>
<g clip-path="url(#clip0_6_157)">
<path d="M16 57.8108C16 61.2293 18.7711 64 22.1892 64H57.8106C61.2293 64 64 61.2289 64 57.8108V22.1894C64 18.7707 61.2289 16 57.8108 16H22.1894C18.7707 16 16 18.7711 16 22.1892V57.8106V57.8108Z" fill="#563D7C"/>
<path d="M35.9046 37.2321V30.4347H41.8879C42.4579 30.4347 43.0073 30.4821 43.5364 30.5772C44.0655 30.6721 44.5337 30.8416 44.9408 31.0859C45.3477 31.3302 45.6734 31.6694 45.9177 32.1034C46.1618 32.5377 46.284 33.094 46.284 33.7722C46.284 34.9934 45.9177 35.8754 45.1849 36.418C44.4524 36.9608 43.5162 37.2321 42.3764 37.2321H35.9046ZM29.514 25.4688V54.5312H43.5975C44.9001 54.5312 46.1687 54.3685 47.4034 54.0428C48.6381 53.7171 49.737 53.2152 50.7004 52.5368C51.6636 51.8584 52.4303 50.9832 53.0001 49.9114C53.5701 48.8395 53.8549 47.5709 53.8549 46.1056C53.8549 44.2874 53.4139 42.7339 52.5321 41.4451C51.6501 40.156 50.3136 39.2537 48.5226 38.7381C49.8252 38.1141 50.809 37.3135 51.4739 36.3366C52.1385 35.3597 52.471 34.1388 52.471 32.6733C52.471 31.3165 52.2471 30.1769 51.7994 29.2542C51.3516 28.3317 50.7207 27.5922 49.9065 27.0359C49.0926 26.4796 48.1157 26.0792 46.9759 25.8351C45.8363 25.5908 44.5744 25.4688 43.1905 25.4688H29.514ZM35.9046 49.5653V41.5874H42.8648C44.2487 41.5874 45.3614 41.9061 46.2027 42.544C47.0438 43.1817 47.4645 44.2467 47.4645 45.7392C47.4645 46.4991 47.3355 47.1231 47.0777 47.6116C46.8199 48.1 46.474 48.4868 46.0397 48.7716C45.6057 49.0566 45.1035 49.2601 44.5337 49.3823C43.9637 49.5042 43.3669 49.5653 42.7427 49.5653H35.9046Z" fill="white"/>
</g>
<defs>
<clipPath id="clip0_6_157">
<rect width="48" height="48" fill="white" transform="translate(16 16)"/>
</clipPath>
</defs>
</svg>
